<mxfile host="65bd71144e">
    <diagram id="P8cyUlvSamw_WOs9yjPG" name="Page-1">
        <mxGraphModel dx="2224" dy="766" grid="1" gridSize="10" guides="1" tooltips="1" connect="1" arrows="1" fold="1" page="1" pageScale="1" pageWidth="850" pageHeight="1100" math="0" shadow="0">
            <root>
                <mxCell id="0"/>
                <mxCell id="1" parent="0"/>
                <mxCell id="2" value="Start" style="ellipse;whiteSpace=wrap;html=1;" vertex="1" parent="1">
                    <mxGeometry x="-480" y="120" width="120" height="80" as="geometry"/>
                </mxCell>
                <mxCell id="3" value="&lt;div style=&quot;background-color: rgb(30 , 30 , 30) ; font-family: &amp;#34;droid sans mono&amp;#34; , &amp;#34;monospace&amp;#34; , monospace ; font-size: 14px ; line-height: 19px&quot;&gt;&lt;div style=&quot;font-size: 12px&quot;&gt;&lt;b&gt;&lt;font color=&quot;#d4d4d4&quot;&gt;Написать программу, которая из имеющегося массива строк формирует новый массив из строк,&lt;/font&gt;&lt;/b&gt;&lt;/div&gt;&lt;div style=&quot;font-size: 12px&quot;&gt;&lt;b&gt;&lt;font color=&quot;#d4d4d4&quot;&gt;длина которых меньше, либо равна 3 символам.Первоначальный массив можно ввести с клавиатуры,&amp;nbsp;&lt;/font&gt;&lt;/b&gt;&lt;/div&gt;&lt;div style=&quot;font-size: 12px&quot;&gt;&lt;b&gt;&lt;font color=&quot;#d4d4d4&quot;&gt;либо задать на старте выполнения алгоритма.&lt;/font&gt;&lt;/b&gt;&lt;/div&gt;&lt;div style=&quot;font-size: 12px&quot;&gt;&lt;b&gt;&lt;font color=&quot;#d4d4d4&quot;&gt;При решении не рекомендуется пользоваться коллекциями, лучше обойтись исключительно массивами.&lt;/font&gt;&lt;/b&gt;&lt;/div&gt;&lt;/div&gt;" style="text;html=1;align=center;verticalAlign=middle;resizable=0;points=[];autosize=1;" vertex="1" parent="1">
                    <mxGeometry x="-770" y="10" width="690" height="80" as="geometry"/>
                </mxCell>
                <mxCell id="6" value="Первоначальный массив, введенный с клавиатуры" style="shape=parallelogram;perimeter=parallelogramPerimeter;whiteSpace=wrap;html=1;fixedSize=1;fontSize=12;fontColor=#D4D4D4;" vertex="1" parent="1">
                    <mxGeometry x="-490" y="220" width="140" height="60" as="geometry"/>
                </mxCell>
                <mxCell id="7" value="Пустой список для нового массива" style="rounded=0;whiteSpace=wrap;html=1;fontSize=12;fontColor=#D4D4D4;" vertex="1" parent="1">
                    <mxGeometry x="-480" y="310" width="120" height="60" as="geometry"/>
                </mxCell>
                <mxCell id="8" value="if&lt;br&gt;если элемент меньше или равен трём символам" style="rhombus;whiteSpace=wrap;html=1;fontSize=12;fontColor=#D4D4D4;" vertex="1" parent="1">
                    <mxGeometry x="-518.5" y="480" width="197" height="100" as="geometry"/>
                </mxCell>
                <mxCell id="10" value="Добавляем новый элемент в новый массив" style="rounded=0;whiteSpace=wrap;html=1;fontSize=12;fontColor=#D4D4D4;" vertex="1" parent="1">
                    <mxGeometry x="-480" y="650" width="120" height="60" as="geometry"/>
                </mxCell>
                <mxCell id="11" value="" style="endArrow=classic;html=1;fontSize=12;fontColor=#D4D4D4;entryX=0.5;entryY=0;entryDx=0;entryDy=0;exitX=0.5;exitY=1;exitDx=0;exitDy=0;" edge="1" parent="1" source="8" target="10">
                    <mxGeometry width="50" height="50" relative="1" as="geometry">
                        <mxPoint x="-560" y="660" as="sourcePoint"/>
                        <mxPoint x="-510" y="610" as="targetPoint"/>
                    </mxGeometry>
                </mxCell>
                <mxCell id="12" value="Цикл for для каждого элемента нового массива" style="rounded=0;whiteSpace=wrap;html=1;fontSize=12;fontColor=#D4D4D4;" vertex="1" parent="1">
                    <mxGeometry x="-480" y="390" width="120" height="60" as="geometry"/>
                </mxCell>
                <mxCell id="14" value="" style="endArrow=none;html=1;fontSize=12;fontColor=#D4D4D4;" edge="1" parent="1">
                    <mxGeometry width="50" height="50" relative="1" as="geometry">
                        <mxPoint x="-550" y="530" as="sourcePoint"/>
                        <mxPoint x="-520" y="530" as="targetPoint"/>
                    </mxGeometry>
                </mxCell>
                <mxCell id="15" value="" style="endArrow=none;html=1;fontSize=12;fontColor=#D4D4D4;" edge="1" parent="1">
                    <mxGeometry width="50" height="50" relative="1" as="geometry">
                        <mxPoint x="-550" y="530" as="sourcePoint"/>
                        <mxPoint x="-550" y="420" as="targetPoint"/>
                    </mxGeometry>
                </mxCell>
                <mxCell id="16" value="" style="endArrow=classic;html=1;fontSize=12;fontColor=#D4D4D4;entryX=0;entryY=0.5;entryDx=0;entryDy=0;" edge="1" parent="1" target="12">
                    <mxGeometry width="50" height="50" relative="1" as="geometry">
                        <mxPoint x="-550" y="420" as="sourcePoint"/>
                        <mxPoint x="-690" y="340" as="targetPoint"/>
                    </mxGeometry>
                </mxCell>
                <mxCell id="17" value="Да" style="text;html=1;strokeColor=none;fillColor=none;align=center;verticalAlign=middle;whiteSpace=wrap;rounded=0;fontSize=12;fontColor=#D4D4D4;" vertex="1" parent="1">
                    <mxGeometry x="-470" y="590" width="60" height="30" as="geometry"/>
                </mxCell>
                <mxCell id="18" value="Нет" style="text;html=1;strokeColor=none;fillColor=none;align=center;verticalAlign=middle;whiteSpace=wrap;rounded=0;fontSize=12;fontColor=#D4D4D4;" vertex="1" parent="1">
                    <mxGeometry x="-560" y="530" width="60" height="30" as="geometry"/>
                </mxCell>
                <mxCell id="19" value="Print&lt;br&gt;новый массив" style="shape=document;whiteSpace=wrap;html=1;boundedLbl=1;fontSize=12;fontColor=#D4D4D4;" vertex="1" parent="1">
                    <mxGeometry x="-480" y="740" width="120" height="80" as="geometry"/>
                </mxCell>
                <mxCell id="20" value="End" style="ellipse;whiteSpace=wrap;html=1;fontSize=12;fontColor=#D4D4D4;" vertex="1" parent="1">
                    <mxGeometry x="-290" y="740" width="120" height="80" as="geometry"/>
                </mxCell>
                <mxCell id="21" value="" style="endArrow=classic;html=1;fontSize=12;fontColor=#D4D4D4;exitX=0.5;exitY=1;exitDx=0;exitDy=0;entryX=0.5;entryY=0;entryDx=0;entryDy=0;" edge="1" parent="1" source="2" target="6">
                    <mxGeometry width="50" height="50" relative="1" as="geometry">
                        <mxPoint x="-630" y="310" as="sourcePoint"/>
                        <mxPoint x="-580" y="260" as="targetPoint"/>
                    </mxGeometry>
                </mxCell>
                <mxCell id="22" value="" style="endArrow=classic;html=1;fontSize=12;fontColor=#D4D4D4;entryX=0.5;entryY=0;entryDx=0;entryDy=0;exitX=0.5;exitY=1;exitDx=0;exitDy=0;" edge="1" parent="1" source="6" target="7">
                    <mxGeometry width="50" height="50" relative="1" as="geometry">
                        <mxPoint x="-640" y="330" as="sourcePoint"/>
                        <mxPoint x="-590" y="280" as="targetPoint"/>
                    </mxGeometry>
                </mxCell>
                <mxCell id="23" value="" style="endArrow=classic;html=1;fontSize=12;fontColor=#D4D4D4;entryX=0.5;entryY=0;entryDx=0;entryDy=0;exitX=0.5;exitY=1;exitDx=0;exitDy=0;" edge="1" parent="1" source="7" target="12">
                    <mxGeometry width="50" height="50" relative="1" as="geometry">
                        <mxPoint x="-680" y="390" as="sourcePoint"/>
                        <mxPoint x="-630" y="340" as="targetPoint"/>
                    </mxGeometry>
                </mxCell>
                <mxCell id="24" value="" style="endArrow=classic;html=1;fontSize=12;fontColor=#D4D4D4;entryX=0.5;entryY=0;entryDx=0;entryDy=0;exitX=0.5;exitY=1;exitDx=0;exitDy=0;" edge="1" parent="1" source="10" target="19">
                    <mxGeometry width="50" height="50" relative="1" as="geometry">
                        <mxPoint x="-550" y="750" as="sourcePoint"/>
                        <mxPoint x="-500" y="700" as="targetPoint"/>
                    </mxGeometry>
                </mxCell>
                <mxCell id="25" value="" style="endArrow=classic;html=1;fontSize=12;fontColor=#D4D4D4;entryX=0;entryY=0.5;entryDx=0;entryDy=0;exitX=1;exitY=0.5;exitDx=0;exitDy=0;" edge="1" parent="1" source="19" target="20">
                    <mxGeometry width="50" height="50" relative="1" as="geometry">
                        <mxPoint x="-650" y="860" as="sourcePoint"/>
                        <mxPoint x="-600" y="810" as="targetPoint"/>
                    </mxGeometry>
                </mxCell>
            </root>
        </mxGraphModel>
    </diagram>
</mxfile>